<svg width="40" height="40" viewBox="0 0 40 40" fill="none" xmlns="http://www.w3.org/2000/svg">
<path opacity="0.4" d="M20.2012 21.3C20.0845 21.2833 19.9345 21.2833 19.8012 21.3C16.8678 21.2 14.5345 18.8 14.5345 15.85C14.5345 12.8333 16.9678 10.3833 20.0012 10.3833C23.0178 10.3833 25.4678 12.8333 25.4678 15.85C25.4511 18.8 23.1345 21.2 20.2012 21.3Z" stroke="#1648CE" stroke-width="2" stroke-linecap="round" stroke-linejoin="round"/>
<path opacity="0.34" d="M31.233 32.3002C28.2663 35.0168 24.333 36.6668 19.9997 36.6668C15.6663 36.6668 11.733 35.0168 8.7663 32.3002C8.93296 30.7335 9.93296 29.2002 11.7163 28.0002C16.283 24.9668 23.7497 24.9668 28.283 28.0002C30.0663 29.2002 31.0663 30.7335 31.233 32.3002Z" stroke="#1648CE" stroke-width="2" stroke-linecap="round" stroke-linejoin="round"/>
<path d="M20 36.6666C29.2046 36.6666 36.6666 29.2046 36.6666 20C36.6666 10.7952 29.2046 3.33331 20 3.33331C10.7952 3.33331 3.33331 10.7952 3.33331 20C3.33331 29.2046 10.7952 36.6666 20 36.6666Z" stroke="#1648CE" stroke-width="2" stroke-linecap="round" stroke-linejoin="round"/>
</svg>
