<svg width="40" height="40" viewBox="0 0 40 40" fill="none" xmlns="http://www.w3.org/2000/svg">
<mask id="mask0_10_357" style="mask-type:luminance" maskUnits="userSpaceOnUse" x="11" y="16" width="18" height="4">
<path d="M28.3333 16.6667H11.6666V20H28.3333V16.6667Z" fill="white"/>
</mask>
<g mask="url(#mask0_10_357)">
<path d="M26.6667 20C26.45 20.0027 26.2348 19.963 26.0333 19.8834C25.8285 19.7969 25.642 19.6725 25.4833 19.5169C25.3335 19.3632 25.2145 19.182 25.1333 18.9834C25.0493 18.7767 25.0042 18.5564 25 18.3334C25.0018 17.896 25.1755 17.4772 25.4833 17.1667C25.6375 17.0055 25.8253 16.8804 26.0333 16.8002C26.3385 16.6745 26.674 16.6423 26.9973 16.7075C27.3207 16.7729 27.6175 16.9327 27.85 17.1667C28.1578 17.4772 28.3315 17.896 28.3333 18.3334C28.3292 18.5564 28.284 18.7767 28.2 18.9834C28.1188 19.182 27.9998 19.3632 27.85 19.5169C27.6943 19.6712 27.5095 19.7934 27.3065 19.8764C27.1035 19.9592 26.886 20.0012 26.6667 20Z" fill="#1648CE"/>
<path d="M19.9999 20C19.7833 20.0027 19.5681 19.963 19.3666 19.8834C19.1618 19.7969 18.9753 19.6725 18.8166 19.5169C18.6668 19.3632 18.5478 19.182 18.4666 18.9834C18.3826 18.7767 18.3374 18.5564 18.3333 18.3334C18.3351 17.896 18.5088 17.4772 18.8166 17.1667C18.9708 17.0055 19.1586 16.8804 19.3666 16.8002C19.6718 16.6745 20.0073 16.6423 20.3306 16.7075C20.6539 16.7729 20.9508 16.9327 21.1833 17.1667C21.4911 17.4772 21.6648 17.896 21.6666 18.3334C21.6624 18.5564 21.6173 18.7767 21.5333 18.9834C21.4521 19.182 21.3331 19.3632 21.1833 19.5169C21.0276 19.6712 20.8428 19.7934 20.6398 19.8764C20.4368 19.9592 20.2193 20.0012 19.9999 20Z" fill="#1648CE"/>
<path d="M13.3333 20C13.1166 20.0027 12.9015 19.963 12.7 19.8834C12.4952 19.7969 12.3086 19.6725 12.15 19.5169C12.0001 19.3632 11.8812 19.182 11.7999 18.9834C11.716 18.7767 11.6708 18.5564 11.6666 18.3334C11.6685 17.896 11.8421 17.4772 12.15 17.1667C12.3041 17.0055 12.4919 16.8804 12.7 16.8002C13.005 16.6745 13.3405 16.6423 13.6639 16.7075C13.9874 16.7729 14.2841 16.9327 14.5166 17.1667C14.8245 17.4772 14.9981 17.896 15 18.3334C14.9958 18.5564 14.9506 18.7767 14.8666 18.9834C14.7854 19.182 14.6665 19.3632 14.5166 19.5169C14.3609 19.6712 14.1762 19.7934 13.9731 19.8764C13.7701 19.9592 13.5526 20.0012 13.3333 20Z" fill="#1648CE"/>
</g>
<path d="M8.33248 27.5834V33.1667C8.33199 33.8504 8.53171 34.519 8.90693 35.0904C9.28215 35.6617 9.81653 36.1109 10.444 36.382C11.0715 36.6532 11.7645 36.7347 12.4378 36.6164C13.1111 36.4982 13.735 36.1855 14.2325 35.7169L18.5825 31.6169H20.0325C29.2325 31.6169 36.6991 25.2835 36.6991 17.4502C36.6991 9.61684 29.2325 3.28351 20.0325 3.28351C10.8325 3.28351 3.36584 9.63351 3.36584 17.4502C3.40329 19.3982 3.87098 21.3137 4.73538 23.0597C5.59978 24.8059 6.83951 26.3392 8.36584 27.55L8.33248 27.5834Z" stroke="#1648CE" stroke-width="2" stroke-linecap="round" stroke-linejoin="round"/>
</svg>

