<svg width="40" height="40" viewBox="0 0 40 40" fill="none" xmlns="http://www.w3.org/2000/svg">
<path d="M20 7.5C21.7259 7.5 23.125 6.10089 23.125 4.375C23.125 2.64911 21.7259 1.25 20 1.25C18.2741 1.25 16.875 2.64911 16.875 4.375C16.875 6.10089 18.2741 7.5 20 7.5Z" stroke="#1648CE" stroke-width="2" stroke-miterlimit="10"/>
<path d="M15.5703 23.0953L13.1953 36.5485C13.1526 36.7911 13.1582 37.0398 13.2116 37.2803C13.2651 37.5208 13.3654 37.7484 13.5069 37.9501C13.6484 38.1518 13.8283 38.3237 14.0362 38.4558C14.2441 38.588 14.4761 38.6779 14.7187 38.7203C14.9605 38.7633 15.2084 38.7579 15.4481 38.7045C15.6877 38.651 15.9144 38.5505 16.1149 38.4088C16.3155 38.2671 16.4859 38.087 16.6164 37.879C16.7469 37.671 16.8348 37.4391 16.875 37.1969L18.5156 27.8297V27.8453C18.5156 27.8453 18.9219 25.3063 19.8828 25.3063H20.125C21.1016 25.3063 21.4922 27.8453 21.4922 27.8453V27.8375L23.1328 37.2047C23.2198 37.6927 23.4971 38.1261 23.9037 38.4096C24.3103 38.6931 24.8128 38.8035 25.3008 38.7164C25.7887 38.6294 26.2221 38.3521 26.5056 37.9455C26.7891 37.539 26.8995 37.0364 26.8125 36.5485L24.4375 23.0953L24.0547 20.775C23.8281 19.361 23.7266 17.0563 24.0937 16.111C24.4062 15.2985 25.1977 15.0016 25.9063 15.0016H33.125C33.6223 15.0016 34.0992 14.804 34.4508 14.4524C34.8025 14.1008 35 13.6239 35 13.1266C35 12.6293 34.8025 12.1524 34.4508 11.8008C34.0992 11.4491 33.6223 11.2516 33.125 11.2516H6.875C6.37772 11.2516 5.90081 11.4491 5.54917 11.8008C5.19754 12.1524 5 12.6293 5 13.1266C5 13.6239 5.19754 14.1008 5.54917 14.4524C5.90081 14.804 6.37772 15.0016 6.875 15.0016H14.1016C14.8227 15.0016 15.6016 15.2985 15.9141 16.111C16.2812 17.0563 16.1797 19.361 15.9531 20.775L15.5703 23.0953Z" stroke="#1648CE" stroke-width="2" stroke-miterlimit="10"/>
</svg>
