<svg width="32" height="32" viewBox="0 0 32 32" fill="none" xmlns="http://www.w3.org/2000/svg">
<rect width="32" height="32" rx="10" fill="#F5FAFF"/>
<path d="M20.5541 6.93416C21.1527 6.33587 21.9643 5.99984 22.8106 6C23.6568 6.00016 24.4684 6.33648 25.0667 6.93499C25.665 7.5335 26.001 8.34517 26.0008 9.19143C26.0007 10.0377 25.6644 10.8492 25.0658 11.4475L23.8442 12.6675L24.2825 13.1059C24.829 13.6528 25.1361 14.3943 25.1361 15.1675C25.1361 15.9407 24.829 16.6823 24.2825 17.2292L22.4225 19.0909C22.266 19.2474 22.0538 19.3353 21.8325 19.3353C21.6112 19.3353 21.399 19.2474 21.2425 19.0909C21.086 18.9344 20.9981 18.7222 20.9981 18.5009C20.9981 18.2796 21.086 18.0674 21.2425 17.9109L23.1042 16.0509C23.3382 15.8165 23.4697 15.4988 23.4697 15.1675C23.4697 14.8363 23.3382 14.5186 23.1042 14.2842L22.6658 13.8459L12.7408 23.7709C12.4392 24.0722 12.0718 24.2993 11.6674 24.4343L7.09573 25.9576C6.94903 26.0063 6.79169 26.0132 6.64129 25.9776C6.4909 25.942 6.35337 25.8652 6.24408 25.7559C6.13479 25.6466 6.05805 25.5091 6.02243 25.3587C5.98681 25.2083 5.99372 25.051 6.04239 24.9043L7.56573 20.3326C7.70066 19.9282 7.92775 19.5608 8.22907 19.2592L20.5541 6.93416Z" fill="#1648CE"/>
</svg>
