<svg width="16" height="21" viewBox="0 0 16 21" fill="none" xmlns="http://www.w3.org/2000/svg">
<path d="M0.888885 2.61113C0.888885 1.94809 1.15228 1.3122 1.62112 0.843363C2.08996 0.374522 2.72584 0.11113 3.38889 0.11113H13.3889C14.0519 0.11113 14.6878 0.374522 15.1567 0.843363C15.6255 1.3122 15.8889 1.94809 15.8889 2.61113V16.3611C15.8889 16.6926 15.7572 17.0106 15.5228 17.245C15.2884 17.4794 14.9704 17.6111 14.6389 17.6111H2.13889C2.13889 17.9426 2.27058 18.2606 2.505 18.495C2.73942 18.7294 3.05737 18.8611 3.38889 18.8611H15.2639C15.4297 18.8611 15.5886 18.927 15.7058 19.0442C15.823 19.1614 15.8889 19.3204 15.8889 19.4861C15.8889 19.6519 15.823 19.8109 15.7058 19.9281C15.5886 20.0453 15.4297 20.1111 15.2639 20.1111H3.38889C2.72584 20.1111 2.08996 19.8477 1.62112 19.3789C1.15228 18.9101 0.888885 18.2742 0.888885 17.6111V2.61113ZM8.38889 3.86113C8.22313 3.86113 8.06416 3.92698 7.94695 4.04419C7.82973 4.1614 7.76389 4.32037 7.76389 4.48613V9.48613C7.76389 9.65189 7.82973 9.81086 7.94695 9.92807C8.06416 10.0453 8.22313 10.1111 8.38889 10.1111C8.55465 10.1111 8.71362 10.0453 8.83083 9.92807C8.94804 9.81086 9.01389 9.65189 9.01389 9.48613V4.48613C9.01389 4.32037 8.94804 4.1614 8.83083 4.04419C8.71362 3.92698 8.55465 3.86113 8.38889 3.86113ZM9.32639 12.9236C9.32639 12.675 9.22762 12.4365 9.0518 12.2607C8.87598 12.0849 8.63753 11.9861 8.38889 11.9861C8.14025 11.9861 7.90179 12.0849 7.72598 12.2607C7.55016 12.4365 7.45139 12.675 7.45139 12.9236C7.45139 13.1723 7.55016 13.4107 7.72598 13.5865C7.90179 13.7624 8.14025 13.8611 8.38889 13.8611C8.63753 13.8611 8.87598 13.7624 9.0518 13.5865C9.22762 13.4107 9.32639 13.1723 9.32639 12.9236Z" fill="#1648CE"/>
</svg>
