<svg width="16" height="16" viewBox="0 0 16 16" fill="none" xmlns="http://www.w3.org/2000/svg">
<path d="M7.59315 1.14574L7.71429 1.14288C8.36706 1.14293 8.99539 1.39124 9.47184 1.83745C9.94829 2.28366 10.2372 2.89437 10.28 3.54574C10.2834 3.65684 10.2436 3.76493 10.1688 3.8472C10.0941 3.92946 9.99029 3.97947 9.87937 3.98666C9.76845 3.99385 9.65907 3.95767 9.57433 3.88574C9.48958 3.81382 9.43609 3.71178 9.42515 3.60117C9.39716 3.16534 9.20389 2.75662 8.88479 2.45845C8.56569 2.16028 8.14481 1.99514 7.70809 1.99675C7.27136 1.99835 6.85172 2.16658 6.53481 2.46708C6.21791 2.76759 6.02765 3.17772 6.00286 3.61374L6.00001 3.71431V5.42803L11.2857 5.4286C11.6267 5.4286 11.9537 5.56406 12.1949 5.80517C12.436 6.04629 12.5714 6.37332 12.5714 6.71431V13.5726C12.5714 13.9136 12.436 14.2406 12.1949 14.4817C11.9537 14.7229 11.6267 14.8583 11.2857 14.8583H4.14286C3.80187 14.8583 3.47484 14.7229 3.23372 14.4817C2.99261 14.2406 2.85715 13.9136 2.85715 13.5726V6.71431C2.85715 6.37332 2.99261 6.04629 3.23372 5.80517C3.47484 5.56406 3.80187 5.4286 4.14286 5.4286L5.14286 5.42803V3.71431C5.14286 3.0533 5.39742 2.41768 5.85368 1.93939C6.30994 1.4611 6.93287 1.17688 7.59315 1.14574L7.71429 1.14288L7.59315 1.14574ZM7.71429 9.14288C7.46809 9.14288 7.23198 9.24069 7.05789 9.41477C6.88381 9.58886 6.78601 9.82497 6.78601 10.0712C6.78601 10.3174 6.88381 10.5535 7.05789 10.7276C7.23198 10.9017 7.46809 10.9995 7.71429 10.9995C7.96049 10.9995 8.1966 10.9017 8.37069 10.7276C8.54478 10.5535 8.64258 10.3174 8.64258 10.0712C8.64258 9.82497 8.54478 9.58886 8.37069 9.41477C8.1966 9.24069 7.96049 9.14288 7.71429 9.14288Z" fill="#1648CE"/>
</svg>
