<svg width="20" height="20" viewBox="0 0 20 20" fill="none" xmlns="http://www.w3.org/2000/svg">
<path d="M7.64403 0.452136C7.96803 0.161035 8.38821 0 8.82378 0C9.25934 0 9.67952 0.161035 10.0035 0.452136L16.4759 6.26672C16.6601 6.43234 16.8074 6.63487 16.9081 6.86113C17.0089 7.0874 17.0609 7.33234 17.0608 7.58003V8.7027C16.6117 8.44348 16.111 8.28634 15.5944 8.24244C15.0777 8.19854 14.5577 8.26895 14.0713 8.44868C13.5849 8.62841 13.144 8.91305 12.7801 9.28236C12.4161 9.65168 12.1379 10.0966 11.9653 10.5856H7.05798C6.90193 10.5856 6.75227 10.6476 6.64192 10.7579C6.53157 10.8683 6.46958 11.0179 6.46958 11.174V15.8812C6.46958 16.3494 6.28361 16.7983 5.95257 17.1294C5.62153 17.4604 5.17254 17.6464 4.70438 17.6464H2.35077C1.88261 17.6464 1.43363 17.4604 1.10259 17.1294C0.771548 16.7983 0.585571 16.3494 0.585571 15.8812V7.58003C0.585571 7.07871 0.797396 6.6021 1.17162 6.26672L7.64403 0.452136ZM17.6492 11.7624C17.6492 12.3866 17.4012 12.9852 16.9599 13.4266C16.5185 13.868 15.9198 14.116 15.2956 14.116C14.6714 14.116 14.0727 13.868 13.6314 13.4266C13.19 12.9852 12.942 12.3866 12.942 11.7624C12.942 11.1382 13.19 10.5395 13.6314 10.0981C14.0727 9.65675 14.6714 9.40878 15.2956 9.40878C15.9198 9.40878 16.5185 9.65675 16.9599 10.0981C17.4012 10.5395 17.6492 11.1382 17.6492 11.7624ZM19.4144 17.058C19.4144 18.5231 18.2376 20 15.2956 20C12.3536 20 11.1768 18.529 11.1768 17.058C11.1768 16.5898 11.3628 16.1408 11.6938 15.8098C12.0248 15.4788 12.4738 15.2928 12.942 15.2928H17.6492C18.1174 15.2928 18.5664 15.4788 18.8974 15.8098C19.2284 16.1408 19.4144 16.5898 19.4144 17.058Z" fill="#1648CE"/>
</svg>
