<svg width="13" height="20" viewBox="0 0 13 20" fill="none" xmlns="http://www.w3.org/2000/svg">
<path d="M6.50003 -3.05176e-05C7.29568 -3.05176e-05 8.05874 0.31604 8.62135 0.878649C9.18396 1.44126 9.50002 2.20432 9.50002 2.99997C9.50002 3.79562 9.18396 4.55868 8.62135 5.12129C8.05874 5.6839 7.29568 5.99997 6.50003 5.99997C5.70438 5.99997 4.94132 5.6839 4.37871 5.12129C3.8161 4.55868 3.50003 3.79562 3.50003 2.99997C3.50003 2.20432 3.8161 1.44126 4.37871 0.878649C4.94132 0.31604 5.70438 -3.05176e-05 6.50003 -3.05176e-05ZM6.50003 6.99997C8.13003 6.99997 9.62002 7.34997 11 8.04997C12.34 8.75997 13 9.60996 13 10.61V16.38C13 17.5 12.14 18.44 10.39 19.19V17C10.39 16.05 9.53003 15.38 7.81003 14.97C7.25003 14.84 6.81003 14.78 6.50003 14.78C5.63003 14.78 4.80003 14.95 4.04003 15.3C3.27003 15.64 2.81003 16.08 2.66003 16.61C4.00003 17.14 5.28003 17.41 6.50003 17.41L7.50003 17.31V19.94L6.50003 20C5.1613 20.0019 3.83673 19.726 2.61003 19.19C0.86003 18.44 3.05176e-05 17.5 3.05176e-05 16.38V10.61C3.05176e-05 9.60996 0.66003 8.75997 2.00003 8.04997C3.38003 7.34997 4.88003 6.99997 6.50003 6.99997ZM6.50003 8.99997C5.96959 8.99997 5.46089 9.21068 5.08581 9.58575C4.71074 9.96082 4.50003 10.4695 4.50003 11C4.50003 11.5304 4.71074 12.0391 5.08581 12.4142C5.46089 12.7892 5.96959 13 6.50003 13C7.03046 13 7.53917 12.7892 7.91424 12.4142C8.28931 12.0391 8.50003 11.5304 8.50003 11C8.50003 10.4695 8.28931 9.96082 7.91424 9.58575C7.53917 9.21068 7.03046 8.99997 6.50003 8.99997Z" fill="#1648CE"/>
</svg>
