<svg width="20" height="20" viewBox="0 0 20 20" fill="none" xmlns="http://www.w3.org/2000/svg">
<path d="M0.484187 6.9216C0.918478 5.57963 1.63207 4.34487 2.578 3.29859C2.65622 3.21215 2.75836 3.1509 2.87146 3.12263C2.98456 3.09436 3.10351 3.10033 3.2132 3.13979L5.46935 3.94673C5.62996 4.00409 5.80113 4.02583 5.97098 4.01045C6.14083 3.99508 6.30531 3.94295 6.45301 3.85768C6.60072 3.77242 6.72811 3.65605 6.82637 3.51666C6.92463 3.37726 6.99141 3.21816 7.02206 3.05039L7.45259 0.690735C7.47338 0.575868 7.52789 0.469787 7.60916 0.385997C7.69044 0.302206 7.79481 0.244497 7.90899 0.220215C9.28745 -0.0734051 10.7123 -0.0734051 12.0907 0.220215C12.2047 0.244704 12.3088 0.302505 12.3899 0.38628C12.4709 0.470055 12.5253 0.576024 12.546 0.690735L12.9777 3.05039C13.0083 3.21816 13.0751 3.37726 13.1734 3.51666C13.2716 3.65605 13.399 3.77242 13.5467 3.85768C13.6944 3.94295 13.8589 3.99508 14.0288 4.01045C14.1986 4.02583 14.3698 4.00409 14.5304 3.94673L16.7865 3.13979C16.8963 3.10047 17.0154 3.09468 17.1285 3.12317C17.2416 3.15165 17.3437 3.21312 17.4217 3.29977C18.3675 4.3457 19.0811 5.58005 19.5155 6.9216C19.5514 7.03241 19.5536 7.15137 19.5217 7.26341C19.4899 7.37545 19.4255 7.47551 19.3368 7.55092L17.5076 9.10363C17.3777 9.21406 17.2733 9.35142 17.2017 9.50619C17.1301 9.66096 17.093 9.82945 17.093 9.99997C17.093 10.1705 17.1301 10.339 17.2017 10.4938C17.2733 10.6485 17.3777 10.7859 17.5076 10.8963L19.3368 12.449C19.4255 12.5244 19.4899 12.6245 19.5217 12.7365C19.5536 12.8486 19.5514 12.9675 19.5155 13.0784C19.0813 14.4203 18.3677 15.6551 17.4217 16.7014C17.3435 16.7878 17.2414 16.849 17.1283 16.8773C17.0152 16.9056 16.8962 16.8996 16.7865 16.8602L14.5304 16.0532C14.3698 15.9959 14.1986 15.9741 14.0288 15.9895C13.8589 16.0049 13.6944 16.057 13.5467 16.1423C13.399 16.2275 13.2716 16.3439 13.1734 16.4833C13.0751 16.6227 13.0083 16.7818 12.9777 16.9496L12.546 19.3104C12.525 19.4249 12.4706 19.5306 12.3896 19.6141C12.3085 19.6977 12.2045 19.7553 12.0907 19.7797C10.7123 20.0734 9.28744 20.0734 7.90899 19.7797C7.79481 19.7554 7.69044 19.6977 7.60916 19.614C7.52789 19.5302 7.47338 19.4241 7.45259 19.3092L7.02324 16.9496C6.99258 16.7818 6.92581 16.6227 6.82755 16.4833C6.72929 16.3439 6.60189 16.2275 6.45419 16.1423C6.30649 16.057 6.14201 16.0049 5.97216 15.9895C5.8023 15.9741 5.63114 15.9959 5.47052 16.0532L3.2132 16.8602C3.1034 16.8995 2.98437 16.9053 2.87127 16.8768C2.75817 16.8483 2.65608 16.7868 2.578 16.7002C1.63219 15.6543 0.918595 14.4199 0.484187 13.0784C0.448463 12.9674 0.446499 12.8484 0.478541 12.7363C0.510584 12.6243 0.57519 12.5243 0.664161 12.449L2.49213 10.8963C2.62207 10.7859 2.72645 10.6485 2.79803 10.4938C2.86961 10.339 2.90669 10.1705 2.90669 9.99997C2.90669 9.82945 2.86961 9.66096 2.79803 9.50619C2.72645 9.35142 2.62207 9.21406 2.49213 9.10363L0.664161 7.55092C0.57519 7.47565 0.510584 7.37565 0.478541 7.26361C0.446499 7.15156 0.448463 7.03252 0.484187 6.9216ZM7.64785 9.99997C7.64785 10.6239 7.89572 11.2223 8.33692 11.6635C8.77811 12.1047 9.37651 12.3526 10.0005 12.3526C10.6244 12.3526 11.2228 12.1047 11.664 11.6635C12.1052 11.2223 12.3531 10.6239 12.3531 9.99997C12.3531 9.37603 12.1052 8.77763 11.664 8.33644C11.2228 7.89524 10.6244 7.64737 10.0005 7.64737C9.37651 7.64737 8.77811 7.89524 8.33692 8.33644C7.89572 8.77763 7.64785 9.37603 7.64785 9.99997Z" fill="#1648CE"/>
</svg>
