<svg width="18" height="18" viewBox="0 0 18 18" fill="none" xmlns="http://www.w3.org/2000/svg">
<path d="M10.2539 1.37277C10.6699 0.942969 11.1672 0.600255 11.7169 0.364597C12.2667 0.128939 12.8578 0.00505045 13.4559 0.000151223C14.054 -0.00474801 14.647 0.10944 15.2006 0.336061C15.7541 0.562681 16.2569 0.897202 16.6799 1.32013C17.1028 1.74305 17.4373 2.24593 17.6639 2.79944C17.8906 3.35295 18.0047 3.94603 17.9998 4.54412C17.9949 5.14221 17.8711 5.73334 17.6354 6.28306C17.3997 6.83279 17.057 7.33011 16.6272 7.74605L7.69324 16.68C6.84809 17.5252 5.70182 18 4.5066 18C3.31137 18 2.1651 17.5252 1.31995 16.68C0.474801 15.8349 0 14.6886 0 13.4934C0 12.2982 0.474801 11.1519 1.31995 10.3068L10.2539 1.37277ZM15.8377 2.16231C15.2019 1.52666 14.3396 1.16958 13.4406 1.16958C12.5415 1.16958 11.6793 1.52666 11.0435 2.16231L6.9707 6.23398L11.7649 11.0282L15.8377 6.95651C16.1526 6.64177 16.4023 6.26807 16.5728 5.85677C16.7432 5.44546 16.8309 5.00462 16.8309 4.55941C16.8309 4.1142 16.7432 3.67336 16.5728 3.26205C16.4023 2.85075 16.1526 2.47705 15.8377 2.16231ZM7.69324 13.657C7.58853 13.5523 7.44653 13.4935 7.29847 13.4935C7.15041 13.4935 7.00841 13.5523 6.9037 13.657L5.22857 15.3321C5.13378 15.427 5.02123 15.5022 4.89735 15.5536C4.77347 15.6049 4.64069 15.6313 4.5066 15.6313C4.3725 15.6313 4.23972 15.6049 4.11584 15.5536C3.99196 15.5022 3.87941 15.427 3.78462 15.3321C3.70702 15.2528 3.60746 15.1985 3.49875 15.1762C3.39004 15.1539 3.27714 15.1646 3.17458 15.207C3.07202 15.2494 2.98449 15.3215 2.92325 15.4141C2.862 15.5066 2.82985 15.6154 2.83091 15.7263C2.83092 15.8006 2.84574 15.8741 2.87451 15.9426C2.90327 16.011 2.9454 16.073 2.99843 16.125C3.39959 16.5245 3.94284 16.7485 4.50896 16.7478C5.07508 16.7472 5.61784 16.522 6.01812 16.1217L7.69324 14.4465C7.79792 14.3418 7.85672 14.1998 7.85672 14.0518C7.85672 13.9037 7.79792 13.7617 7.69324 13.657Z" fill="#1648CE"/>
</svg>
