<svg width="34" height="35" viewBox="0 0 34 35" fill="none" xmlns="http://www.w3.org/2000/svg">
<path d="M22.2617 34C20.7218 33.6978 19.2123 33.3351 17.84 32.5206C14.0861 30.2917 11.9866 26.2087 12.7215 21.7419C13.4838 17.1058 16.9419 13.7148 21.3728 12.9774C27.3055 11.9846 32.7183 15.7216 33.8223 21.5741C34.9185 27.3844 30.6569 33.1462 24.7318 33.8716C24.6151 33.9012 24.5028 33.9459 24.3979 34.0045L22.2617 34ZM25.6161 26.0319C25.6257 26.4492 25.505 26.8592 25.2706 27.206C25.0362 27.5527 24.6994 27.8192 24.3064 27.9692C23.0607 28.4739 21.815 27.8996 21.3255 26.5925C21.0541 25.8657 20.6486 25.6572 19.9838 25.9065C19.319 26.1558 19.3907 26.662 19.5645 27.1562C19.9518 28.2668 20.6867 29.0647 21.8394 29.4092C22.2114 29.5211 22.4584 29.6087 22.4965 30.0696C22.5392 30.5985 22.9631 30.7194 23.4495 30.7028C23.9359 30.6861 24.1936 30.5169 24.311 30.0318C24.3466 29.9135 24.407 29.8039 24.4882 29.7102C24.5693 29.6165 24.6695 29.5407 24.7821 29.4878C26.5371 28.832 27.5419 27.4493 27.429 25.778C27.3116 24.0448 26.2093 22.9236 24.2866 22.5125C23.6189 22.3832 22.965 22.192 22.3334 21.9413C21.6412 21.6512 21.3194 21.0498 21.356 20.2988C21.3926 19.5477 21.8135 19.04 22.5011 18.7499C23.5867 18.2965 24.5473 18.6592 25.1663 19.7578C25.2251 19.8752 25.3078 19.9792 25.4092 20.0633C25.5106 20.1475 25.6285 20.2098 25.7555 20.2464C25.8825 20.2831 26.0157 20.2932 26.1468 20.2762C26.278 20.2592 26.4041 20.2154 26.5173 20.1476C27.0219 19.8696 27.0448 19.4646 26.807 18.9932C26.3941 18.1744 25.6762 17.5469 24.805 17.2433C24.6856 17.1885 24.5795 17.1089 24.494 17.0098C24.4085 16.9107 24.3455 16.7945 24.3094 16.6691C24.2164 16.1311 23.9893 15.8667 23.419 15.8561C22.8488 15.8455 22.5408 16.0948 22.4279 16.663C22.402 16.7799 22.3511 16.89 22.2788 16.9859C22.2065 17.0818 22.1144 17.1613 22.0086 17.2191C20.4031 17.8341 19.5691 18.9463 19.5889 20.5028C19.6087 22.0592 20.3589 23.0157 22.0102 23.5824C22.7237 23.8272 23.4754 23.9677 24.192 24.208C25.1587 24.5284 25.6161 25.154 25.6161 26.0319Z" fill="white"/>
<path d="M13.2658 0C14.4673 0.151111 15.6886 0.214578 16.8657 0.474489C18.2627 0.804627 19.6409 1.20816 20.9947 1.68338C21.4064 1.82089 21.7814 2.13671 22.1032 2.45253C22.6826 3.01316 22.7131 3.64027 22.1032 4.15253C21.5527 4.60587 20.9169 5.08338 20.2415 5.25716C18.3386 5.74827 16.4144 6.24996 14.4673 6.44942C11.0793 6.8 7.6731 6.67458 4.33851 5.87671C3.25696 5.62662 2.20998 5.2476 1.22043 4.74791C-0.369867 3.92889 -0.383589 2.61422 1.25092 1.86622C2.6552 1.22551 4.19213 0.832622 5.70467 0.476C6.87566 0.200978 8.10154 0.151111 9.30151 0H13.2658Z" fill="white"/>
<path d="M22.5484 5.59111C22.5484 6.91636 22.6246 8.37911 22.5042 9.82222C22.4645 10.3043 22.0178 10.88 21.5893 11.1822C20.153 12.1962 18.4408 12.5422 16.7392 12.7885C12.4135 13.4217 8.08172 13.4187 3.81247 12.3639C2.84274 12.1252 1.91876 11.6703 1.01307 11.2381C0.30559 10.8951 -0.0176535 10.2756 0.00826698 9.44596C0.04791 8.11618 0.0189401 6.78489 0.0189401 5.56996C7.52062 8.4864 14.9781 8.46222 22.5484 5.59111Z" fill="white"/>
<path d="M0.0189401 12.0405C5.16796 14.6291 10.6052 14.5067 16.2695 14.0246C14.1807 15.6657 12.8267 17.5908 12.046 19.9089C11.9982 19.9966 11.93 20.0717 11.847 20.1279C11.7639 20.1842 11.6686 20.2199 11.5688 20.2323C8.38972 20.2398 5.23962 20.0101 2.22675 18.8874C1.78036 18.7123 1.3524 18.4941 0.949027 18.2361C0.294917 17.8311 -0.0161287 17.266 0.000643324 16.4711C0.0494347 14.9978 0.0189401 13.5229 0.0189401 12.0405Z" fill="white"/>
<path d="M0.0189401 19.0234C3.70422 21.086 7.66242 21.2795 11.4682 21.3369C11.6206 23.3316 11.77 25.2859 11.9164 27.2C10.8964 27.2 9.67049 27.336 8.4873 27.1713C6.44416 26.8857 4.42389 26.4339 2.40362 26.0077C1.97212 25.9171 1.56654 25.6617 1.17164 25.4441C0.378777 25.0074 -0.0359502 24.3863 0.00369279 23.4252C0.0631573 21.9912 0.0189401 20.5511 0.0189401 19.0234Z" fill="white"/>
</svg>
