<svg width="34" height="34" viewBox="0 0 34 34" fill="none" xmlns="http://www.w3.org/2000/svg">
<path d="M34 25.8354C31.9902 26.8582 29.9744 27.8705 27.9722 28.907C24.9862 30.4525 22.0093 32.0163 19.0264 33.5724C18.83 33.6737 18.6275 33.7643 18.3524 33.8973C18.321 33.697 18.2998 33.4953 18.289 33.2929C18.289 28.2845 18.289 23.2745 18.3147 18.2646C18.3147 17.9836 18.5066 17.5575 18.7332 17.4442C23.7159 14.9503 28.7081 12.4775 33.7099 10.026C33.8036 9.99435 33.9012 9.97604 34 9.97156V25.8354Z" fill="url(#paint0_linear_4301_5431)"/>
<path d="M0 9.97156C1.44764 10.6484 2.85147 11.4492 4.35502 11.9674C6.02782 12.54 6.63227 13.522 6.37538 15.2489C6.22427 16.2325 6.34364 17.2568 6.34969 18.2631C6.34969 19.1998 6.8544 19.7875 7.63262 19.7951C8.43956 19.7951 8.91404 19.2496 8.91707 18.2842C8.91707 16.9879 8.91707 15.6931 8.91707 14.2744C10.8241 15.2157 12.5876 16.166 14.4175 16.9517C15.4284 17.3883 15.7775 17.9367 15.7533 19.0668C15.6763 24.0435 15.7171 29.0218 15.7156 34H15.5644C15.3757 33.8493 15.1773 33.711 14.9706 33.586C10.3934 31.1944 5.80871 28.8178 1.24062 26.4095C0.776711 26.1587 0.411022 25.7266 0 25.3822V9.97156Z" fill="url(#paint1_linear_4301_5431)"/>
<path d="M17.3778 0L22.7332 2.73009C22.4491 2.89477 22.2315 3.03226 22.0033 3.15162C17.334 5.54076 12.6661 7.93192 7.99982 10.3251C7.82342 10.4352 7.62011 10.4945 7.41219 10.4967C7.20427 10.4988 6.99977 10.4436 6.82116 10.3372C5.03502 9.43068 3.22471 8.55741 1.32222 7.61767C1.62444 7.46658 1.8496 7.34269 2.07778 7.22938C6.80252 4.90067 11.5268 2.56894 16.2505 0.234181C16.3785 0.162746 16.5025 0.0845761 16.6222 0H17.3778Z" fill="url(#paint2_linear_4301_5431)"/>
<path d="M32.6838 7.61465C28.0689 9.89904 23.5099 12.0656 19.0476 14.4134C17.5576 15.1991 16.388 15.2988 14.9479 14.3968C13.5335 13.51 11.9589 12.886 10.339 12.0792C10.5868 11.9387 10.7395 11.8435 10.8996 11.7619C15.6596 9.32643 20.4222 6.89549 25.1872 4.46907C25.438 4.34216 25.8385 4.26813 26.0697 4.37842C28.2457 5.41184 30.399 6.49662 32.6838 7.61465Z" fill="url(#paint3_linear_4301_5431)"/>
<defs>
<linearGradient id="paint0_linear_4301_5431" x1="-8.64407" y1="-6.375" x2="21.1099" y2="40.6915" gradientUnits="userSpaceOnUse">
<stop stop-color="#E200B2"/>
<stop offset="1" stop-color="#5B015B"/>
</linearGradient>
<linearGradient id="paint1_linear_4301_5431" x1="-8.64407" y1="-6.375" x2="21.1099" y2="40.6915" gradientUnits="userSpaceOnUse">
<stop stop-color="#E200B2"/>
<stop offset="1" stop-color="#5B015B"/>
</linearGradient>
<linearGradient id="paint2_linear_4301_5431" x1="-8.64407" y1="-6.375" x2="21.1099" y2="40.6915" gradientUnits="userSpaceOnUse">
<stop stop-color="#E200B2"/>
<stop offset="1" stop-color="#5B015B"/>
</linearGradient>
<linearGradient id="paint3_linear_4301_5431" x1="-8.64407" y1="-6.375" x2="21.1099" y2="40.6915" gradientUnits="userSpaceOnUse">
<stop stop-color="#E200B2"/>
<stop offset="1" stop-color="#5B015B"/>
</linearGradient>
</defs>
</svg>
