<svg width="110" height="110" viewBox="0 0 110 110" fill="none" xmlns="http://www.w3.org/2000/svg">
<rect y="10" width="100" height="100" rx="25" fill="#F6F6F6"/>
<path d="M92 1.5C82.9002 1.5 75.5 8.90024 75.5 18C75.5 27.0998 82.9002 34.5 92 34.5C101.1 34.5 108.5 27.0998 108.5 18C108.5 8.90024 101.1 1.5 92 1.5Z" fill="#9E366B" stroke="white" stroke-width="3"/>
<path d="M99.6026 14.8213L91.4775 22.9461C91.2338 23.1899 90.9138 23.3126 90.5938 23.3126C90.2738 23.3126 89.9539 23.1899 89.7101 22.9461L85.6477 18.8837C85.1588 18.3951 85.1588 17.6049 85.6477 17.1163C86.1363 16.6274 86.9262 16.6274 87.4151 17.1163L90.5938 20.295L97.8352 13.0539C98.3238 12.565 99.1137 12.565 99.6026 13.0539C100.091 13.5425 100.091 14.3324 99.6026 14.8213Z" fill="#FAFAFA"/>
<path d="M75.1435 55.799L52.2614 34.949C51.2571 34.0337 49.7425 34.0338 48.7386 34.9489L25.8564 55.7991C25.0519 56.5322 24.7861 57.6618 25.1792 58.6767C25.5724 59.6917 26.5296 60.3474 27.618 60.3474H31.2727V81.2375C31.2727 82.0658 31.9443 82.7373 32.7725 82.7373H45.3147C46.143 82.7373 46.8145 82.0659 46.8145 81.2375V68.5537H54.1858V81.2376C54.1858 82.0659 54.8574 82.7374 55.6856 82.7374H68.2272C69.0555 82.7374 69.727 82.066 69.727 81.2376V60.3474H73.3824C74.4707 60.3474 75.4281 59.6916 75.8212 58.6767C76.2138 57.6617 75.948 56.5322 75.1435 55.799Z" fill="#9E366B"/>
</svg>
