<svg width="105" height="49" viewBox="0 0 105 49" fill="none" xmlns="http://www.w3.org/2000/svg">
<g filter="url(#filter0_d_123_73)">
<rect x="4" width="97" height="41" rx="5" fill="white"/>
</g>
<path d="M22.808 19.566V20.784H25.888V23.122H22.808V24.522H26.308V27H19.7V17.088H26.308V19.566H22.808ZM27.0593 23.052C27.0593 22.2213 27.1993 21.5027 27.4793 20.896C27.7686 20.28 28.1606 19.8133 28.6553 19.496C29.15 19.1693 29.7053 19.006 30.3213 19.006C30.8346 19.006 31.2733 19.1133 31.6373 19.328C32.0106 19.5333 32.2953 19.818 32.4913 20.182V16.64H35.5993V27H32.4913V25.922C32.2953 26.286 32.0106 26.5753 31.6373 26.79C31.2733 26.9953 30.8346 27.098 30.3213 27.098C29.7053 27.098 29.15 26.9393 28.6553 26.622C28.1606 26.2953 27.7686 25.8287 27.4793 25.222C27.1993 24.606 27.0593 23.8827 27.0593 23.052ZM32.5053 23.052C32.5053 22.632 32.398 22.3053 32.1833 22.072C31.9686 21.8387 31.6933 21.722 31.3573 21.722C31.0213 21.722 30.746 21.8387 30.5313 22.072C30.3166 22.3053 30.2093 22.632 30.2093 23.052C30.2093 23.472 30.3166 23.7987 30.5313 24.032C30.746 24.2653 31.0213 24.382 31.3573 24.382C31.6933 24.382 31.9686 24.2653 32.1833 24.032C32.398 23.7987 32.5053 23.472 32.5053 23.052ZM38.5629 18.474C38.0216 18.474 37.5876 18.3293 37.2609 18.04C36.9343 17.7507 36.7709 17.3867 36.7709 16.948C36.7709 16.5 36.9343 16.1313 37.2609 15.842C37.5876 15.5433 38.0216 15.394 38.5629 15.394C39.0949 15.394 39.5243 15.5433 39.8509 15.842C40.1776 16.1313 40.3409 16.5 40.3409 16.948C40.3409 17.3867 40.1776 17.7507 39.8509 18.04C39.5243 18.3293 39.0949 18.474 38.5629 18.474ZM40.1029 19.104V27H36.9949V19.104H40.1029ZM46.4206 24.354V27H45.2446C43.0793 27 41.9966 25.922 41.9966 23.766V21.694H41.0166V19.104H41.9966V17.2H45.1046V19.104H46.3926V21.694H45.1046V23.822C45.1046 24.0087 45.1466 24.144 45.2306 24.228C45.324 24.312 45.4733 24.354 45.6786 24.354H46.4206ZM58.0892 20.49C58.0892 21.1153 57.9445 21.6847 57.6552 22.198C57.3659 22.702 56.9365 23.1033 56.3672 23.402C55.8072 23.7007 55.1259 23.85 54.3232 23.85H53.0912V27H49.9832V17.088H54.3232C55.5365 17.088 56.4652 17.396 57.1092 18.012C57.7625 18.628 58.0892 19.454 58.0892 20.49ZM53.9732 21.4C54.6172 21.4 54.9392 21.0967 54.9392 20.49C54.9392 19.8833 54.6172 19.58 53.9732 19.58H53.0912V21.4H53.9732ZM62.183 20.56C62.5003 20.1027 62.8877 19.7387 63.345 19.468C63.8023 19.188 64.2783 19.048 64.773 19.048V22.366H63.891C63.303 22.366 62.869 22.4687 62.589 22.674C62.3183 22.8793 62.183 23.2433 62.183 23.766V27H59.075V19.104H62.183V20.56ZM69.3622 27.098C68.5688 27.098 67.8548 26.9347 67.2202 26.608C66.5855 26.2813 66.0862 25.8147 65.7222 25.208C65.3675 24.592 65.1902 23.8733 65.1902 23.052C65.1902 22.2307 65.3675 21.5167 65.7222 20.91C66.0862 20.294 66.5855 19.8227 67.2202 19.496C67.8548 19.1693 68.5688 19.006 69.3622 19.006C70.1555 19.006 70.8695 19.1693 71.5042 19.496C72.1388 19.8227 72.6335 20.294 72.9882 20.91C73.3522 21.5167 73.5342 22.2307 73.5342 23.052C73.5342 23.8733 73.3522 24.592 72.9882 25.208C72.6335 25.8147 72.1388 26.2813 71.5042 26.608C70.8695 26.9347 70.1555 27.098 69.3622 27.098ZM69.3622 24.41C69.6515 24.41 69.8942 24.298 70.0902 24.074C70.2862 23.8407 70.3842 23.5 70.3842 23.052C70.3842 22.604 70.2862 22.268 70.0902 22.044C69.8942 21.8107 69.6515 21.694 69.3622 21.694C69.0728 21.694 68.8302 21.8107 68.6342 22.044C68.4382 22.268 68.3402 22.604 68.3402 23.052C68.3402 23.5 68.4335 23.8407 68.6202 24.074C68.8162 24.298 69.0635 24.41 69.3622 24.41ZM79.0605 18.544C78.8925 18.5253 78.7759 18.516 78.7105 18.516C78.4772 18.516 78.2999 18.5627 78.1785 18.656C78.0572 18.74 77.9732 18.8893 77.9265 19.104H79.0605V21.694H77.8985V27H74.7905V21.694H73.9505V19.104H74.7905C74.8092 18.0773 75.1312 17.284 75.7565 16.724C76.3912 16.1547 77.2779 15.87 78.4165 15.87C78.5472 15.87 78.7619 15.8793 79.0605 15.898V18.544ZM81.4653 18.474C80.9239 18.474 80.4899 18.3293 80.1633 18.04C79.8366 17.7507 79.6733 17.3867 79.6733 16.948C79.6733 16.5 79.8366 16.1313 80.1633 15.842C80.4899 15.5433 80.9239 15.394 81.4653 15.394C81.9973 15.394 82.4266 15.5433 82.7533 15.842C83.0799 16.1313 83.2433 16.5 83.2433 16.948C83.2433 17.3867 83.0799 17.7507 82.7533 18.04C82.4266 18.3293 81.9973 18.474 81.4653 18.474ZM83.0053 19.104V27H79.8973V19.104H83.0053ZM87.517 16.64V27H84.409V16.64H87.517ZM96.5647 22.982C96.5647 23.1967 96.5507 23.402 96.5227 23.598H91.5247C91.5714 24.2793 91.856 24.62 92.3787 24.62C92.7147 24.62 92.9574 24.466 93.1067 24.158H96.3967C96.2847 24.718 96.0467 25.222 95.6827 25.67C95.328 26.1087 94.8754 26.4587 94.3247 26.72C93.7834 26.972 93.186 27.098 92.5327 27.098C91.7487 27.098 91.0487 26.9347 90.4327 26.608C89.826 26.2813 89.35 25.8147 89.0047 25.208C88.6687 24.592 88.5007 23.8733 88.5007 23.052C88.5007 22.2307 88.6687 21.5167 89.0047 20.91C89.35 20.294 89.826 19.8227 90.4327 19.496C91.0487 19.1693 91.7487 19.006 92.5327 19.006C93.3167 19.006 94.012 19.1693 94.6187 19.496C95.2347 19.8133 95.7107 20.2707 96.0467 20.868C96.392 21.4653 96.5647 22.17 96.5647 22.982ZM93.4147 22.24C93.4147 21.9787 93.3307 21.7827 93.1627 21.652C92.9947 21.512 92.7847 21.442 92.5327 21.442C91.982 21.442 91.66 21.708 91.5667 22.24H93.4147Z" fill="#777A95"/>
<defs>
<filter id="filter0_d_123_73" x="0" y="0" width="105" height="49" filterUnits="userSpaceOnUse" color-interpolation-filters="sRGB">
<feFlood flood-opacity="0" result="BackgroundImageFix"/>
<feColorMatrix in="SourceAlpha" type="matrix" values="0 0 0 0 0 0 0 0 0 0 0 0 0 0 0 0 0 0 127 0" result="hardAlpha"/>
<feOffset dy="4"/>
<feGaussianBlur stdDeviation="2"/>
<feColorMatrix type="matrix" values="0 0 0 0 0 0 0 0 0 0 0 0 0 0 0 0 0 0 0.25 0"/>
<feBlend mode="normal" in2="BackgroundImageFix" result="effect1_dropShadow_123_73"/>
<feBlend mode="normal" in="SourceGraphic" in2="effect1_dropShadow_123_73" result="shape"/>
</filter>
</defs>
</svg>
