<svg width="77" height="77" viewBox="0 0 77 77" fill="none" xmlns="http://www.w3.org/2000/svg">
<rect width="76.5" height="76.5" rx="20" fill="url(#paint0_linear_123_1564)"/>
<path d="M42.7889 22.5H23.664C21.9132 22.5 20.5 23.9294 20.5 25.7003V38.5015C20.5 40.2722 21.9132 41.7018 23.664 41.7018H24.7187V44.9021C24.7187 45.6728 25.5077 46.2309 26.2797 45.8408C26.3007 45.8195 26.343 45.8195 26.3641 45.7981C32.166 41.8628 30.8657 42.7402 32.1649 41.8724C32.3335 41.7657 32.5234 41.7018 32.7343 41.7018H42.7889C44.5398 41.7018 45.953 40.2722 45.953 38.5015V25.7003C45.953 23.9294 44.5398 22.5 42.7889 22.5ZM34.3515 35.3012H25.7734C24.3831 35.3012 24.3774 33.1677 25.7734 33.1677H34.3515C35.7418 33.1677 35.7475 35.3012 34.3515 35.3012ZM40.6796 31.0341H25.7734C24.3831 31.0341 24.3774 28.9006 25.7734 28.9006H40.6796C42.0699 28.9006 42.0756 31.0341 40.6796 31.0341Z" fill="#ffffff"/>
<path d="M53.3358 31.0341H48.0624V38.5014C48.0624 41.4457 45.6999 43.8352 42.789 43.8352H33.0508L31.0469 45.1794V47.0355C31.0469 48.8063 32.4601 50.2358 34.2109 50.2358H44.5819L50.6358 54.3321C51.4621 54.7962 52.2811 54.2319 52.2811 53.4361V50.2358H53.3358C55.0867 50.2358 56.4999 48.8063 56.4999 47.0355V34.2344C56.4999 32.4635 55.0867 31.0341 53.3358 31.0341Z" fill="#ffffff"/>

<defs>
<linearGradient id="paint0_linear_123_1564" x1="153" y1="0" x2="153" y2="60" gradientUnits="userSpaceOnUse">
<stop stop-color="#E200B2"/>
<stop offset="1" stop-color="#5B015B"/>
</linearGradient>
</defs>
</svg>
