<svg width="77" height="77" viewBox="0 0 77 77" fill="none" xmlns="http://www.w3.org/2000/svg">
<rect width="76.5" height="76.5" rx="20" fill="#777A95"/>
<path d="M24.7683 30.2036C26.6862 27.2755 29.6774 25.1163 33.1766 24.2702C33.4462 24.2056 33.6683 24.0147 33.7723 23.7585C33.877 23.5015 33.8518 23.2103 33.7047 22.9748C32.5846 21.1892 30.6029 20 28.3389 20C24.8389 20 22 22.8374 22 26.3374C22 27.823 22.5133 29.1874 23.3704 30.2667C23.542 30.4843 23.8079 30.6047 24.085 30.592C24.362 30.5794 24.6168 30.4346 24.7683 30.2036Z" fill="white"/>
<path d="M47.6494 20C45.3958 20 43.4208 21.178 42.2984 22.9518C42.1499 23.1865 42.1239 23.4799 42.2286 23.7384C42.3341 23.9976 42.5569 24.1878 42.8295 24.2517C46.3384 25.0776 49.34 27.222 51.2742 30.1404C51.428 30.3722 51.6842 30.5155 51.9628 30.5252C52.2413 30.5356 52.5057 30.4108 52.6766 30.1902C53.4973 29.1236 53.9883 27.7895 53.9883 26.3381C53.9861 22.8374 51.1494 20 47.6494 20Z" fill="white"/>
<path d="M52.0069 39.4103C52.0069 36.9636 51.3703 34.6639 50.2606 32.6629C48.2038 28.9564 44.51 26.2921 40.1625 25.625C39.4695 25.5188 38.7661 25.4468 38.0434 25.4468C37.2887 25.4468 36.5533 25.524 35.8306 25.6399C31.5017 26.3344 27.8264 29.0099 25.7912 32.7208C24.7015 34.7085 24.0798 36.9873 24.0798 39.4103C24.0798 43.5595 25.9093 47.2815 28.7913 49.8397L27.6147 51.4968C27.1081 52.2106 27.276 53.1985 27.9898 53.7066C28.2684 53.9042 28.5885 54 28.9057 54C29.4019 54 29.8906 53.7675 30.1989 53.333L31.3747 51.6766C33.3572 52.7588 35.6293 53.3753 38.0434 53.3753C40.4566 53.3753 42.7288 52.7588 44.7113 51.6766L45.8871 53.333C46.1961 53.7682 46.6841 54 47.1803 54C47.4975 54 47.8168 53.9042 48.0954 53.7066C48.8092 53.1985 48.9778 52.2106 48.4712 51.4968L47.2947 49.8397C50.1767 47.2815 52.0069 43.5595 52.0069 39.4103ZM38.0441 49.469C32.497 49.469 27.9854 44.9574 27.9854 39.4103C27.9854 37.6811 28.4244 36.0537 29.1954 34.6305C30.6631 31.9238 33.3401 29.974 36.4939 29.483C37.0005 29.4043 37.5152 29.3508 38.0441 29.3508C38.5418 29.3508 39.0283 29.3991 39.5074 29.4697C42.688 29.9361 45.3939 31.8859 46.8787 34.6045C47.6586 36.0329 48.1021 37.6692 48.1021 39.4096C48.1021 44.9574 43.5904 49.469 38.0441 49.469Z" fill="white"/>
<path d="M43.6788 41.7635L39.8416 39.394C39.7621 38.9454 39.5192 38.5584 39.1783 38.2843L39.3536 33.4696C39.3751 32.8546 38.8953 32.3383 38.281 32.3153C37.6682 32.2871 37.1498 32.7729 37.1267 33.3879L36.9507 38.2078C36.4746 38.5435 36.1611 39.0962 36.1611 39.7238C36.1611 40.7496 36.9923 41.58 38.0181 41.58C38.31 41.58 38.5826 41.5065 38.8277 41.3869L42.5082 43.6613C42.6909 43.7727 42.8937 43.8269 43.0928 43.8269C43.4664 43.8269 43.8303 43.6397 44.042 43.2988C44.3659 42.7737 44.2025 42.0873 43.6788 41.7635Z" fill="white"/>
</svg>


