<svg width="77" height="77" viewBox="0 0 77 77" fill="none" xmlns="http://www.w3.org/2000/svg">
<rect width="76.5" height="76.5" rx="20" fill="url(#paint0_linear_123_1564)"/>
<path d="M56.6619 25.3091C56.4757 25.2363 56.2967 25.1998 56.1247 25.1998C55.7379 25.1998 55.416 25.3386 55.1579 25.6155L46.4997 34.4095V30.8001C46.4997 29.0645 45.8945 27.5808 44.6842 26.3484C43.4738 25.1162 42.0168 24.5 40.312 24.5H25.1873C23.4831 24.5 22.0256 25.1162 20.8152 26.3484C19.6052 27.5808 19 29.0645 19 30.8001V46.2001C19 47.9356 19.6052 49.4192 20.8153 50.6515C22.0257 51.8838 23.4832 52.5 25.1874 52.5H40.3122C42.0169 52.5 43.474 51.8838 44.6844 50.6515C45.8947 49.4192 46.4998 47.9357 46.4998 46.2001V42.5686L55.1581 51.3844C55.4161 51.6613 55.738 51.8 56.1248 51.8C56.2968 51.8 56.4758 51.7635 56.662 51.6909C57.2209 51.4429 57.5 51.0128 57.5 50.4003V26.6C57.4998 25.9872 57.2207 25.5571 56.6619 25.3091Z" fill="#ffffff"/>
<path d="M29 46L29 31" stroke="#41AE99" stroke-width="2" stroke-linecap="round"/>
<path d="M35 42.5L35 34.5" stroke="#41AE99" stroke-width="2" stroke-linecap="round"/>

<defs>
<linearGradient id="paint0_linear_123_1564" x1="153" y1="0" x2="153" y2="60" gradientUnits="userSpaceOnUse">
<stop stop-color="#E200B2"/>
<stop offset="1" stop-color="#5B015B"/>
</linearGradient>
</defs>
</svg>
