<svg width="77" height="77" viewBox="0 0 77 77" fill="none" xmlns="http://www.w3.org/2000/svg">
<rect width="76.5" height="76.5" rx="20" fill="url(#paint0_linear_123_1564)"/>
<path d="M47.4378 39.027C47.4378 38.387 46.9578 37.8976 46.3301 37.8976C45.7024 37.8976 45.2224 38.387 45.2224 39.027C45.2224 43.4317 41.7146 47.0082 37.3946 47.0082C33.0745 47.0082 29.5667 43.4317 29.5667 39.027C29.5667 38.387 29.0867 37.8976 28.459 37.8976C27.8313 37.8976 27.3513 38.387 27.3513 39.027C27.3513 44.2599 31.1914 48.6646 36.2868 49.2293L36.2868 52.2411L32.2622 52.2411C31.6345 52.2411 31.1545 52.7305 31.1545 53.3705C31.1545 54.0105 31.6345 54.4999 32.2622 54.4999L42.5269 54.4999C43.1546 54.4999 43.6347 54.0105 43.6347 53.3705C43.6347 52.7305 43.1546 52.2411 42.5269 52.2411L38.5023 52.2411L38.5023 49.2293C43.5977 48.6646 47.4378 44.2599 47.4378 39.027Z" fill="#ffffff"/>
<path d="M37.3945 22.5C33.9975 22.5 31.2283 25.3235 31.2283 28.7871L31.2283 38.9894C31.2283 42.4906 33.9975 45.2765 37.3945 45.3141C40.7915 45.3141 43.5608 42.4906 43.5608 39.0271L43.5608 28.7871C43.5608 25.3235 40.7915 22.5 37.3945 22.5Z" fill="#ffffff"/>
<rect width="2.02842" height="33.6749" rx="1.01421" transform="matrix(0.700214 0.713933 -0.700214 0.713933 48.5796 25.4205)" fill="#ffffff"/>
<rect width="2.02842" height="21.2984" rx="1.01421" transform="matrix(0.700214 0.713933 -0.700214 0.713933 44.6501 32.3234)" fill="#2AA48C"/>

<defs>
<linearGradient id="paint0_linear_123_1564" x1="153" y1="0" x2="153" y2="60" gradientUnits="userSpaceOnUse">
<stop stop-color="#E200B2"/>
<stop offset="1" stop-color="#5B015B"/>
</linearGradient>
</defs>
</svg>
